<?xml version="1.0" encoding="UTF-8"?>
<svg width="63px" height="74px" viewBox="0 0 63 74" version="1.1" xmlns="http://www.w3.org/2000/svg" xmlns:xlink="http://www.w3.org/1999/xlink">
    <!-- Generator: Sketch 43.1 (39012) - http://www.bohemiancoding.com/sketch -->
    <title>logo-noword</title>
    <desc>Created with Sketch.</desc>
    <defs>
        <path d="M1.03713295,4.61935484 C1.03713295,7.11354839 3.06608092,9.13548387 5.56892486,9.13548387 C8.07176879,9.13548387 10.1007168,7.11354839 10.1007168,4.61935484 C10.1007168,2.12516129 8.07176879,0.101935484 5.56892486,0.101935484 C3.06608092,0.101935484 1.03713295,2.12516129 1.03713295,4.61935484 Z" id="path-1"></path>
        <path d="M1.03713295,5.20387097 C1.03713295,7.69935484 3.06608092,9.72 5.56892486,9.72 C8.07176879,9.72 10.1007168,7.69935484 10.1007168,5.20387097 C10.1007168,2.70967742 8.07176879,0.687741935 5.56892486,0.687741935 C3.06608092,0.687741935 1.03713295,2.70967742 1.03713295,5.20387097 Z" id="path-3"></path>
    </defs>
    <g id="Page-1" stroke="none" stroke-width="1" fill="none" fill-rule="evenodd">
        <g id="2018-landingpage-copy-14" transform="translate(-689.000000, -3611.000000)">
            <g id="logo-noword" transform="translate(689.000000, 3609.000000)">
                <g id="Group-14" transform="translate(0.000000, 1.044258)">
                    <path d="M31.4649272,5.11767742 L4.66786611,20.5357419 C2.80465723,21.608 1.29492717,24.1989677 1.29492717,26.3589677 L1.29492717,53.3138065 C1.29492717,55.4570323 2.79041449,58.0544516 4.66786611,59.1344516 L28.0919883,72.6131613 C29.9539024,73.684129 32.9604146,73.6931613 34.8378662,72.6131613 L58.2619884,59.1344516 C60.1251973,58.0634839 61.6349273,55.4673548 61.6349273,53.331871 L61.6349273,43.0505806 C61.6349273,40.9176774 59.8973135,39.1912258 57.7414811,39.1963871 L12.9480751,39.8325161" id="Stroke-11" stroke="#E03D52" stroke-width="2.58064516"></path>
                    <path d="M31.4391121,20.7993548 C42.3568462,20.7993548 51.2391584,29.6509677 51.2391584,40.5322581 C51.2391584,51.4122581 42.3568462,60.2651613 31.4391121,60.2651613 C20.521378,60.2651613 11.6377711,51.4122581 11.6377711,40.5322581 C11.6377711,29.6509677 20.521378,20.7993548 31.4391121,20.7993548" id="Stroke-12" stroke="#E03D52" stroke-width="2.84387097"></path>
                    <path d="M35.9968,5.78051613 C35.9968,8.27470968 33.967852,10.2966452 31.4650081,10.2966452 C28.9621642,10.2966452 26.9332162,8.27470968 26.9332162,5.78051613 C26.9332162,3.28632258 28.9621642,1.2643871 31.4650081,1.2643871 C33.967852,1.2643871 35.9968,3.28632258 35.9968,5.78051613" id="Fill-13" fill="#E03D52"></path>
                </g>
                <g id="Group-17" transform="translate(25.895954, 2.205548)">
                    <mask id="mask-2" fill="white">
                        <use xlink:href="#path-1"></use>
                    </mask>
                    <g id="Clip-16"></g>
                    <polygon id="Fill-15" fill="#E03D52" mask="url(#mask-2)" points="-3.99833526 14.1535484 15.136185 14.1535484 15.136185 -4.91483871 -3.99833526 -4.91483871"></polygon>
                </g>
                <path d="M35.9968,40.9578065 C35.9968,43.4532903 33.967852,45.4739355 31.4650081,45.4739355 C28.9621642,45.4739355 26.9332162,43.4532903 26.9332162,40.9578065 C26.9332162,38.4636129 28.9621642,36.4416774 31.4650081,36.4416774 C33.967852,36.4416774 35.9968,38.4636129 35.9968,40.9578065" id="Fill-18" fill="#E03D52"></path>
                <g id="Group-22" transform="translate(25.895954, 35.753935)">
                    <mask id="mask-4" fill="white">
                        <use xlink:href="#path-3"></use>
                    </mask>
                    <g id="Clip-21"></g>
                    <polygon id="Fill-20" fill="#E03D52" mask="url(#mask-4)" points="-3.99833526 14.7393548 15.136185 14.7393548 15.136185 -4.32903226 -3.99833526 -4.32903226"></polygon>
                </g>
                <g id="Group-31" transform="translate(14.242775, 6.076516)">
                    <path d="M0.544721387,45.0829677 C5.75369249,43.3474839 11.3277965,42.408129 17.1220162,42.408129 C22.9900393,42.408129 28.6340624,43.372 33.9000046,45.1500645" id="Stroke-23" stroke="#E03D52" stroke-width="2.58064516"></path>
                    <path d="M33.8990983,24.4491613 C28.6823584,26.1898065 23.0991908,27.1330323 17.2959075,27.1330323 C11.436948,27.1330323 5.80328324,26.1717419 0.545109827,24.400129" id="Stroke-25" stroke="#E03D52" stroke-width="2.58064516"></path>
                    <g id="Group-30" transform="translate(16.832370, 0.000000)">
                        <path d="M0.389863584,1.01032258 L0.389863584,55.2322581" id="Fill-27" fill="#FFFFFF"></path>
                        <path d="M0.389863584,1.01032258 L0.389863584,55.2322581" id="Stroke-29" stroke="#E03D52" stroke-width="2.6116129"></path>
                    </g>
                </g>
            </g>
        </g>
    </g>
</svg>