<svg width="63" height="74" viewBox="0 0 63 74" xmlns="http://www.w3.org/2000/svg" xmlns:xlink="http://www.w3.org/1999/xlink"><defs><path d="M1.037 4.62A4.524 4.524 0 0 0 5.57 9.134 4.524 4.524 0 0 0 10.1 4.62 4.525 4.525 0 0 0 5.569.102a4.525 4.525 0 0 0-4.532 4.517z" id="a"/><path d="M1.037 5.204A4.523 4.523 0 0 0 5.57 9.72a4.523 4.523 0 0 0 4.53-4.516A4.524 4.524 0 0 0 5.569.688a4.524 4.524 0 0 0-4.532 4.516z" id="c"/></defs><g fill="none" fill-rule="evenodd"><path d="M31.465 4.162L4.668 19.58c-1.863 1.072-3.373 3.663-3.373 5.823v26.955c0 2.143 1.495 4.74 3.373 5.82l23.424 13.48c1.862 1.07 4.868 1.08 6.746 0l23.424-13.48c1.863-1.07 3.373-3.666 3.373-5.802V42.095c0-2.133-1.738-3.86-3.894-3.854l-44.793.636" stroke="#E03D52" stroke-width="2.581"/><path d="M31.44 19.844c10.917 0 19.8 8.851 19.8 19.733 0 10.88-8.883 19.732-19.8 19.732-10.919 0-19.802-8.852-19.802-19.732 0-10.882 8.883-19.733 19.801-19.733" stroke="#E03D52" stroke-width="2.844"/><path d="M35.997 4.825a4.524 4.524 0 0 1-4.532 4.516 4.524 4.524 0 0 1-4.532-4.516A4.524 4.524 0 0 1 31.465.309a4.524 4.524 0 0 1 4.532 4.516" fill="#E03D52"/><g transform="translate(25.896 .206)"><mask id="b" fill="#fff"><use xlink:href="#a"/></mask><path fill="#E03D52" mask="url(#b)" d="M-3.998 14.154h19.134V-4.915H-3.998z"/></g><path d="M35.997 38.958a4.523 4.523 0 0 1-4.532 4.516 4.523 4.523 0 0 1-4.532-4.516 4.524 4.524 0 0 1 4.532-4.516 4.524 4.524 0 0 1 4.532 4.516" fill="#E03D52"/><g transform="translate(25.896 33.754)"><mask id="d" fill="#fff"><use xlink:href="#c"/></mask><path fill="#E03D52" mask="url(#d)" d="M-3.998 14.74h19.134V-4.33H-3.998z"/></g><path d="M14.787 49.16a52.355 52.355 0 0 1 16.578-2.675 52.36 52.36 0 0 1 16.778 2.742m-.001-20.701a52.368 52.368 0 0 1-16.603 2.684 52.373 52.373 0 0 1-16.751-2.733" stroke="#E03D52" stroke-width="2.581"/><path d="M31.465 5.087v54.222" fill="#FFF"/><path d="M31.465 5.087v54.222" stroke="#E03D52" stroke-width="2.612"/></g></svg>